<mxfile host="app.diagrams.net" modified="2023-07-31T04:27:19.840Z" agent="Mozilla/5.0 (Windows NT 10.0; Win64; x64) AppleWebKit/537.36 (KHTML, like Gecko) Chrome/115.0.0.0 Safari/537.36" version="21.3.5" etag="r-gIt7hVc0ZyqXQ_mgU-" type="github">
  <diagram name="Page-1" id="Nn3ayt6fs1TTmzoUYS3E">
    <mxGraphModel>
      <root>
        <mxCell id="0" />
        <mxCell id="1" parent="0" />
      </root>
    </mxGraphModel>
  </diagram>
</mxfile>
